# Blender 3.6.1
# www.blender.org
mtllib ward_merging_table.mtl
o Cube
v -0.500000 0.125000 0.500000
v -0.500000 0.250000 0.500000
v -0.500000 0.125000 -1.500000
v -0.500000 0.250000 -1.500000
v 0.500000 0.125000 0.500000
v 0.500000 0.250000 0.500000
v 0.500000 0.125000 -1.500000
v 0.500000 0.250000 -1.500000
v -0.062500 0.217001 -1.064654
v -0.062500 0.279501 -1.064654
v -0.062500 0.217001 -1.127154
v -0.062500 0.279501 -1.127154
v 0.062500 0.217001 -1.064654
v 0.062500 0.279501 -1.064654
v 0.062500 0.217001 -1.127154
v 0.062500 0.279501 -1.127154
v -0.061858 0.217001 -0.437038
v -0.061858 0.279501 -0.437038
v -0.124358 0.217001 -0.437038
v -0.124358 0.279501 -0.437038
v -0.061858 0.217001 -0.562038
v -0.061858 0.279501 -0.562038
v -0.124358 0.217001 -0.562038
v -0.124358 0.279501 -0.562038
v 0.065116 0.279501 -0.561161
v 0.065116 0.217001 -0.561161
v 0.127616 0.279501 -0.561161
v 0.127616 0.217001 -0.561161
v 0.065116 0.279501 -0.436161
v 0.065116 0.217001 -0.436161
v 0.127616 0.279501 -0.436161
v 0.127616 0.217001 -0.436161
v 0.062500 0.279501 0.063180
v 0.062500 0.217001 0.063180
v 0.062500 0.279501 0.125680
v 0.062500 0.217001 0.125680
v -0.062500 0.279501 0.063180
v -0.062500 0.217001 0.063180
v -0.062500 0.279501 0.125680
v -0.062500 0.217001 0.125680
v 0.375000 -0.500000 -1.375000
v 0.375000 0.125000 -1.375000
v 0.375000 -0.500000 -1.500000
v 0.375000 0.125000 -1.500000
v 0.500000 -0.500000 -1.375000
v 0.500000 0.125000 -1.375000
v 0.500000 -0.500000 -1.500000
v 0.500000 0.125000 -1.500000
v -0.500000 -0.500000 -1.375000
v -0.500000 0.125000 -1.375000
v -0.500000 -0.500000 -1.500000
v -0.500000 0.125000 -1.500000
v -0.375000 -0.500000 -1.375000
v -0.375000 0.125000 -1.375000
v -0.375000 -0.500000 -1.500000
v -0.375000 0.125000 -1.500000
v -0.500000 -0.500000 0.500000
v -0.500000 0.125000 0.500000
v -0.500000 -0.500000 0.375000
v -0.500000 0.125000 0.375000
v -0.375000 -0.500000 0.500000
v -0.375000 0.125000 0.500000
v -0.375000 -0.500000 0.375000
v -0.375000 0.125000 0.375000
v 0.375000 -0.500000 0.500000
v 0.375000 0.125000 0.500000
v 0.375000 -0.500000 0.375000
v 0.375000 0.125000 0.375000
v 0.500000 -0.500000 0.500000
v 0.500000 0.125000 0.500000
v 0.500000 -0.500000 0.375000
v 0.500000 0.125000 0.375000
v 0.500000 0.125000 -0.562523
v 0.500000 -0.500000 -0.562523
v 0.500000 0.125000 -0.437523
v 0.500000 -0.500000 -0.437523
v 0.375000 0.125000 -0.562523
v 0.375000 -0.500000 -0.562523
v 0.375000 0.125000 -0.437523
v 0.375000 -0.500000 -0.437523
v -0.500000 -0.500000 -0.437523
v -0.500000 0.125000 -0.437523
v -0.500000 -0.500000 -0.562523
v -0.500000 0.125000 -0.562523
v -0.375000 -0.500000 -0.437523
v -0.375000 0.125000 -0.437523
v -0.375000 -0.500000 -0.562523
v -0.375000 0.125000 -0.562523
v -0.500000 -0.061905 -0.564223
v -0.500000 -0.061905 -1.373872
v -0.500000 -0.186905 -0.564223
v -0.500000 -0.186905 -1.373872
v -0.375000 -0.061905 -0.564223
v -0.375000 -0.061905 -1.373872
v -0.375000 -0.186905 -0.564223
v -0.375000 -0.186905 -1.373872
v -0.500000 -0.061905 0.371124
v -0.500000 -0.061905 -0.438524
v -0.500000 -0.186905 0.371124
v -0.500000 -0.186905 -0.438524
v -0.375000 -0.061905 0.371124
v -0.375000 -0.061905 -0.438524
v -0.375000 -0.186905 0.371124
v -0.375000 -0.186905 -0.438524
v 0.375156 -0.061905 -0.564223
v 0.375156 -0.061905 -1.373872
v 0.375156 -0.186905 -0.564223
v 0.375156 -0.186905 -1.373872
v 0.500156 -0.061905 -0.564223
v 0.500156 -0.061905 -1.373872
v 0.500156 -0.186905 -0.564223
v 0.500156 -0.186905 -1.373872
v 0.375156 -0.061905 0.371124
v 0.375156 -0.061905 -0.438524
v 0.375156 -0.186905 0.371124
v 0.375156 -0.186905 -0.438524
v 0.500156 -0.061905 0.371124
v 0.500156 -0.061905 -0.438524
v 0.500156 -0.186905 0.371124
v 0.500156 -0.186905 -0.438524
v 0.403650 -0.061905 -1.372264
v -0.405999 -0.061905 -1.372264
v 0.403650 -0.186905 -1.372264
v -0.405999 -0.186905 -1.372264
v 0.403650 -0.061905 -1.497264
v -0.405999 -0.061905 -1.497264
v 0.403650 -0.186905 -1.497264
v -0.405999 -0.186905 -1.497264
v 0.407358 -0.061905 0.496413
v -0.402290 -0.061905 0.496413
v 0.407358 -0.186905 0.496413
v -0.402290 -0.186905 0.496413
v 0.407358 -0.061905 0.371413
v -0.402290 -0.061905 0.371413
v 0.407358 -0.186905 0.371413
v -0.402290 -0.186905 0.371413
vn -1.0000 -0.0000 -0.0000
vn -0.0000 -0.0000 -1.0000
vn 1.0000 -0.0000 -0.0000
vn -0.0000 -0.0000 1.0000
vn -0.0000 -1.0000 -0.0000
vn -0.0000 1.0000 -0.0000
vt 0.013733 0.017166
vt 0.013733 0.982834
vt 0.873073 0.982834
vt 0.873073 0.017166
vt 0.000000 1.000000
vt 0.886806 1.000000
vt 0.886806 0.000000
vt 0.000000 0.000000
vt 0.729858 0.834668
vt 0.770141 0.834668
vt 0.770141 0.789840
vt 0.729858 0.789840
vt 0.777835 0.843230
vt 0.777835 0.781278
vt 0.722164 0.781278
vt 0.722164 0.843229
vt 0.893750 0.183594
vt 0.893750 0.494141
vt 0.993750 0.494141
vt 0.993750 0.183594
vt 0.893750 0.203125
vt 0.993750 0.203125
s 0
usemtl Material.001
f 1/1/1 2/1/1 4/2/1 3/2/1
f 3/2/2 4/2/2 8/3/2 7/3/2
f 7/3/3 8/3/3 6/4/3 5/4/3
f 5/4/4 6/4/4 2/1/4 1/1/4
f 3/5/5 7/6/5 5/7/5 1/8/5
f 8/6/6 4/5/6 2/8/6 6/7/6
f 9/9/1 10/9/1 12/10/1 11/10/1
f 11/10/2 12/10/2 16/11/2 15/11/2
f 15/11/3 16/11/3 14/12/3 13/12/3
f 13/12/4 14/12/4 10/9/4 9/9/4
f 11/13/5 15/14/5 13/15/5 9/16/5
f 16/14/6 12/13/6 10/16/6 14/15/6
f 24/14/6 20/13/6 18/16/6 22/15/6
f 19/10/1 20/10/1 24/11/1 23/11/1
f 19/13/5 23/14/5 21/15/5 17/16/5
f 21/12/3 22/12/3 18/9/3 17/9/3
f 23/11/2 24/11/2 22/12/2 21/12/2
f 17/9/4 18/9/4 20/10/4 19/10/4
f 30/13/5 26/14/5 28/15/5 32/16/5
f 30/10/1 29/10/1 25/11/1 26/11/1
f 32/9/4 31/9/4 29/10/4 30/10/4
f 28/12/3 27/12/3 31/9/3 32/9/3
f 25/14/6 29/13/6 31/16/6 27/15/6
f 26/11/2 25/11/2 27/12/2 28/12/2
f 38/13/5 34/14/5 36/15/5 40/16/5
f 38/10/2 37/10/2 33/11/2 34/11/2
f 40/9/1 39/9/1 37/10/1 38/10/1
f 36/12/4 35/12/4 39/9/4 40/9/4
f 33/14/6 37/13/6 39/16/6 35/15/6
f 34/11/3 33/11/3 35/12/3 36/12/3
f 41/17/1 42/18/1 44/19/1 43/20/1
f 43/17/2 44/18/2 48/19/2 47/20/2
f 47/20/3 48/19/3 46/18/3 45/17/3
f 45/20/4 46/19/4 42/18/4 41/17/4
f 43/21/5 47/22/5 45/22/5 41/21/5
f 49/17/1 50/18/1 52/19/1 51/20/1
f 51/17/2 52/18/2 56/19/2 55/20/2
f 55/20/3 56/19/3 54/18/3 53/17/3
f 53/20/4 54/19/4 50/18/4 49/17/4
f 51/21/5 55/22/5 53/22/5 49/21/5
f 57/17/1 58/18/1 60/19/1 59/20/1
f 59/17/2 60/18/2 64/19/2 63/20/2
f 63/20/3 64/19/3 62/18/3 61/17/3
f 61/20/4 62/19/4 58/18/4 57/17/4
f 59/21/5 63/22/5 61/22/5 57/21/5
f 65/17/1 66/18/1 68/19/1 67/20/1
f 67/17/2 68/18/2 72/19/2 71/20/2
f 71/20/3 72/19/3 70/18/3 69/17/3
f 69/20/4 70/19/4 66/18/4 65/17/4
f 67/21/5 71/22/5 69/22/5 65/21/5
f 76/20/4 75/19/4 79/18/4 80/17/4
f 78/17/2 77/18/2 73/19/2 74/20/2
f 80/17/1 79/18/1 77/19/1 78/20/1
f 74/20/3 73/19/3 75/18/3 76/17/3
f 78/21/5 74/22/5 76/22/5 80/21/5
f 81/17/1 82/18/1 84/19/1 83/20/1
f 83/17/2 84/18/2 88/19/2 87/20/2
f 87/20/3 88/19/3 86/18/3 85/17/3
f 85/20/4 86/19/4 82/18/4 81/17/4
f 83/21/5 87/22/5 85/22/5 81/21/5
f 89/17/1 90/18/1 92/19/1 91/20/1
f 91/17/5 92/18/5 96/19/5 95/20/5
f 95/20/3 96/19/3 94/18/3 93/17/3
f 93/20/6 94/19/6 90/18/6 89/17/6
f 91/21/4 95/22/4 93/22/4 89/21/4
f 97/17/1 98/18/1 100/19/1 99/20/1
f 99/17/5 100/18/5 104/19/5 103/20/5
f 103/20/3 104/19/3 102/18/3 101/17/3
f 101/20/6 102/19/6 98/18/6 97/17/6
f 99/21/4 103/22/4 101/22/4 97/21/4
f 105/17/1 106/18/1 108/19/1 107/20/1
f 107/17/5 108/18/5 112/19/5 111/20/5
f 111/20/3 112/19/3 110/18/3 109/17/3
f 109/20/6 110/19/6 106/18/6 105/17/6
f 107/21/4 111/22/4 109/22/4 105/21/4
f 113/17/1 114/18/1 116/19/1 115/20/1
f 115/17/5 116/18/5 120/19/5 119/20/5
f 119/20/3 120/19/3 118/18/3 117/17/3
f 117/20/6 118/19/6 114/18/6 113/17/6
f 115/21/4 119/22/4 117/22/4 113/21/4
f 121/17/4 122/18/4 124/19/4 123/20/4
f 123/17/5 124/18/5 128/19/5 127/20/5
f 127/20/2 128/19/2 126/18/2 125/17/2
f 125/20/6 126/19/6 122/18/6 121/17/6
f 123/21/3 127/22/3 125/22/3 121/21/3
f 129/17/4 130/18/4 132/19/4 131/20/4
f 131/17/5 132/18/5 136/19/5 135/20/5
f 135/20/2 136/19/2 134/18/2 133/17/2
f 133/20/6 134/19/6 130/18/6 129/17/6
f 131/21/3 135/22/3 133/22/3 129/21/3
